<svg xmlns="http://www.w3.org/2000/svg" xmlns:xlink="http://www.w3.org/1999/xlink" width="500" zoomAndPan="magnify" viewBox="0 0 375 374.999991" height="500" preserveAspectRatio="xMidYMid meet" version="1.0"><defs><clipPath id="3868fab561"><path d="M 10.78125 205 L 364 205 L 364 364 L 10.78125 364 Z M 10.78125 205 " clip-rule="nonzero"/></clipPath><clipPath id="8593e17919"><path d="M 51.402344 253 L 69.875 253 L 69.875 284.242188 L 51.402344 284.242188 Z M 51.402344 253 " clip-rule="nonzero"/></clipPath><clipPath id="96af32090a"><path d="M 51.402344 251.757812 L 69.875 251.757812 L 69.875 283 L 51.402344 283 Z M 51.402344 251.757812 " clip-rule="nonzero"/></clipPath><clipPath id="5d1213436c"><path d="M 51.402344 251.757812 L 69.875 251.757812 L 69.875 284 L 51.402344 284 Z M 51.402344 251.757812 " clip-rule="nonzero"/></clipPath><clipPath id="5cb9a7a3a0"><path d="M 76.015625 253 L 103.40625 253 L 103.40625 284.242188 L 76.015625 284.242188 Z M 76.015625 253 " clip-rule="nonzero"/></clipPath><clipPath id="7393ce676a"><path d="M 76.015625 252 L 103.40625 252 L 103.40625 284.242188 L 76.015625 284.242188 Z M 76.015625 252 " clip-rule="nonzero"/></clipPath><clipPath id="8aa1da2763"><path d="M 76.015625 251.757812 L 103.40625 251.757812 L 103.40625 283 L 76.015625 283 Z M 76.015625 251.757812 " clip-rule="nonzero"/></clipPath><clipPath id="c9938ea3eb"><path d="M 76.015625 251.757812 L 103.40625 251.757812 L 103.40625 284 L 76.015625 284 Z M 76.015625 251.757812 " clip-rule="nonzero"/></clipPath><clipPath id="748efb19b2"><path d="M 109.5625 253 L 135.679688 253 L 135.679688 284.242188 L 109.5625 284.242188 Z M 109.5625 253 " clip-rule="nonzero"/></clipPath><clipPath id="ca6568ca18"><path d="M 109.5625 251.757812 L 135.679688 251.757812 L 135.679688 283 L 109.5625 283 Z M 109.5625 251.757812 " clip-rule="nonzero"/></clipPath><clipPath id="f6f95473f0"><path d="M 142.011719 253 L 166.851562 253 L 166.851562 284.242188 L 142.011719 284.242188 Z M 142.011719 253 " clip-rule="nonzero"/></clipPath><clipPath id="058e1841cc"><path d="M 142.011719 251.757812 L 166.851562 251.757812 L 166.851562 283 L 142.011719 283 Z M 142.011719 251.757812 " clip-rule="nonzero"/></clipPath><clipPath id="46ef934e04"><path d="M 173.4375 253 L 195 253 L 195 284.242188 L 173.4375 284.242188 Z M 173.4375 253 " clip-rule="nonzero"/></clipPath><clipPath id="a6e6eb1527"><path d="M 173.4375 253 L 195.097656 253 L 195.097656 284.242188 L 173.4375 284.242188 Z M 173.4375 253 " clip-rule="nonzero"/></clipPath><clipPath id="a7e89931c5"><path d="M 173.4375 251.757812 L 195 251.757812 L 195 283 L 173.4375 283 Z M 173.4375 251.757812 " clip-rule="nonzero"/></clipPath><clipPath id="53707a6eb1"><path d="M 173.4375 251.757812 L 195.097656 251.757812 L 195.097656 283 L 173.4375 283 Z M 173.4375 251.757812 " clip-rule="nonzero"/></clipPath><clipPath id="268ce8d725"><path d="M 201.484375 253 L 226.964844 253 L 226.964844 284.242188 L 201.484375 284.242188 Z M 201.484375 253 " clip-rule="nonzero"/></clipPath><clipPath id="620bb6dc5c"><path d="M 201.484375 251.757812 L 226.964844 251.757812 L 226.964844 283 L 201.484375 283 Z M 201.484375 251.757812 " clip-rule="nonzero"/></clipPath><clipPath id="f8b1044bfc"><path d="M 233.28125 253 L 258.757812 253 L 258.757812 284.242188 L 233.28125 284.242188 Z M 233.28125 253 " clip-rule="nonzero"/></clipPath><clipPath id="38e5391f52"><path d="M 233.28125 251.757812 L 258.757812 251.757812 L 258.757812 283 L 233.28125 283 Z M 233.28125 251.757812 " clip-rule="nonzero"/></clipPath><clipPath id="0ad4491db6"><path d="M 265.074219 253 L 286.730469 253 L 286.730469 284.242188 L 265.074219 284.242188 Z M 265.074219 253 " clip-rule="nonzero"/></clipPath><clipPath id="4e051716e3"><path d="M 265.074219 251.757812 L 286.730469 251.757812 L 286.730469 283 L 265.074219 283 Z M 265.074219 251.757812 " clip-rule="nonzero"/></clipPath><clipPath id="a45a866f73"><path d="M 293.121094 253 L 323.695312 253 L 323.695312 284.242188 L 293.121094 284.242188 Z M 293.121094 253 " clip-rule="nonzero"/></clipPath><clipPath id="62bbaa826b"><path d="M 293.121094 251.757812 L 323.695312 251.757812 L 323.695312 283 L 293.121094 283 Z M 293.121094 251.757812 " clip-rule="nonzero"/></clipPath><clipPath id="da5adedd1a"><path d="M 107.410156 291 L 124.21875 291 L 124.21875 313.332031 L 107.410156 313.332031 Z M 107.410156 291 " clip-rule="nonzero"/></clipPath><clipPath id="e83057c472"><path d="M 107.410156 290.015625 L 124.21875 290.015625 L 124.21875 313 L 107.410156 313 Z M 107.410156 290.015625 " clip-rule="nonzero"/></clipPath><clipPath id="19437d1a02"><path d="M 129.5 291 L 151.734375 291 L 151.734375 313.332031 L 129.5 313.332031 Z M 129.5 291 " clip-rule="nonzero"/></clipPath><clipPath id="893533ff14"><path d="M 129.5 290.015625 L 151.734375 290.015625 L 151.734375 313 L 129.5 313 Z M 129.5 290.015625 " clip-rule="nonzero"/></clipPath><clipPath id="bfdfdd5a5e"><path d="M 157 290.015625 L 174.855469 290.015625 L 174.855469 313.332031 L 157 313.332031 Z M 157 290.015625 " clip-rule="nonzero"/></clipPath><clipPath id="0d3cdd15fb"><path d="M 156.960938 290.015625 L 174.855469 290.015625 L 174.855469 313.332031 L 156.960938 313.332031 Z M 156.960938 290.015625 " clip-rule="nonzero"/></clipPath><clipPath id="669be523a5"><path d="M 157 290.015625 L 174.855469 290.015625 L 174.855469 313 L 157 313 Z M 157 290.015625 " clip-rule="nonzero"/></clipPath><clipPath id="590190d8c0"><path d="M 156.960938 290.015625 L 174.855469 290.015625 L 174.855469 313 L 156.960938 313 Z M 156.960938 290.015625 " clip-rule="nonzero"/></clipPath><clipPath id="4a3220ac49"><path d="M 180.03125 290.015625 L 197.386719 290.015625 L 197.386719 313.332031 L 180.03125 313.332031 Z M 180.03125 290.015625 " clip-rule="nonzero"/></clipPath><clipPath id="759572bd5c"><path d="M 180.03125 290.015625 L 197.386719 290.015625 L 197.386719 313 L 180.03125 313 Z M 180.03125 290.015625 " clip-rule="nonzero"/></clipPath><clipPath id="6d2f464504"><path d="M 202.808594 291 L 220.707031 291 L 220.707031 313.332031 L 202.808594 313.332031 Z M 202.808594 291 " clip-rule="nonzero"/></clipPath><clipPath id="6944edbbf3"><path d="M 202.808594 290.015625 L 220.707031 290.015625 L 220.707031 313 L 202.808594 313 Z M 202.808594 290.015625 " clip-rule="nonzero"/></clipPath><clipPath id="bfedd798e5"><path d="M 226.144531 290.015625 L 243.5 290.015625 L 243.5 313.332031 L 226.144531 313.332031 Z M 226.144531 290.015625 " clip-rule="nonzero"/></clipPath><clipPath id="1bc17591b5"><path d="M 226.144531 290.015625 L 243.5 290.015625 L 243.5 313 L 226.144531 313 Z M 226.144531 290.015625 " clip-rule="nonzero"/></clipPath><clipPath id="3ead21c340"><path d="M 249 291 L 267.359375 291 L 267.359375 313.332031 L 249 313.332031 Z M 249 291 " clip-rule="nonzero"/></clipPath><clipPath id="aa54dae179"><path d="M 248.921875 290.015625 L 267.359375 290.015625 L 267.359375 313.332031 L 248.921875 313.332031 Z M 248.921875 290.015625 " clip-rule="nonzero"/></clipPath><clipPath id="dc2aff96af"><path d="M 249 290.015625 L 267.359375 290.015625 L 267.359375 313 L 249 313 Z M 249 290.015625 " clip-rule="nonzero"/></clipPath><clipPath id="a602e64dd6"><path d="M 248.921875 290.015625 L 267.359375 290.015625 L 267.359375 313 L 248.921875 313 Z M 248.921875 290.015625 " clip-rule="nonzero"/></clipPath></defs><g clip-path="url(#3868fab561)"><path fill="#cfc9cb" d="M 10.828125 205.457031 C 50.46875 205.457031 88.195312 205.257812 125.910156 205.808594 C 129.152344 205.855469 133.222656 210.308594 135.394531 213.6875 C 162.054688 255.101562 212.820312 254.890625 239.789062 213.347656 C 242.101562 209.785156 247.113281 205.808594 250.941406 205.734375 C 283.238281 205.121094 315.550781 205.371094 347.859375 205.363281 C 352.332031 205.359375 356.804688 205.363281 363.738281 205.363281 C 357.21875 258.050781 333.382812 299.234375 291.808594 328.589844 C 232.714844 370.316406 168.800781 374.992188 104.613281 341.886719 C 50.636719 314.046875 20.164062 267.898438 10.828125 205.457031 Z M 10.828125 205.457031 " fill-opacity="1" fill-rule="nonzero"/></g><path fill="#eb081e" d="M 104 27.820312 C 161.234375 -0.0078125 216.496094 0.40625 273.570312 28.941406 C 264.496094 39.761719 256.148438 49.691406 247.828125 59.648438 C 236.253906 73.492188 236.390625 79.285156 248.621094 91.875 C 251.785156 95.132812 255.164062 98.179688 258.285156 101.476562 C 267.765625 111.488281 277.347656 111.101562 287.398438 102.253906 C 299.03125 92.015625 310.851562 81.988281 323.566406 71.023438 C 346.378906 98.191406 359.234375 127.960938 363.984375 164.378906 L 327.445312 164.378906 C 303.734375 164.378906 280.023438 164.132812 256.320312 164.511719 C 248.097656 164.640625 243.105469 162.667969 238.324219 154.835938 C 213.996094 114.972656 161.257812 115.554688 135.871094 155.148438 C 133.476562 158.886719 129.046875 163.855469 125.488281 163.917969 C 87.808594 164.554688 50.109375 164.3125 11.25 164.3125 C 15.484375 127.382812 29.128906 96.855469 52.167969 69.726562 C 64.347656 79.929688 76.222656 89.308594 87.425781 99.429688 C 98.328125 109.273438 107.96875 108.226562 117.5625 97.941406 C 120.65625 94.625 123.839844 91.371094 127.179688 88.296875 C 137.621094 78.691406 138.332031 68.960938 128.707031 58.097656 C 120.429688 48.753906 112.878906 38.765625 104 27.820312 Z M 104 27.820312 " fill-opacity="1" fill-rule="nonzero"/><path fill="#000000" d="M 187.082031 233.289062 C 161.023438 233.027344 139.148438 210.917969 139.203125 184.894531 C 139.257812 158.09375 162.023438 135.808594 188.605469 136.53125 C 214.804688 137.246094 236.191406 159.546875 235.730469 185.664062 C 235.269531 211.8125 213.0625 233.546875 187.082031 233.289062 Z M 162.851562 184.84375 C 162.847656 199.554688 172.503906 209.449219 187.042969 209.625 C 202.257812 209.808594 212.367188 199.527344 212.082031 184.160156 C 211.808594 169.582031 201.828125 159.96875 187.125 160.121094 C 172.53125 160.273438 162.859375 170.125 162.851562 184.84375 Z M 162.851562 184.84375 " fill-opacity="1" fill-rule="nonzero"/><path fill="#eb081e" d="M 284.070312 34.34375 L 316.742188 61.785156 C 303.414062 73.371094 291.601562 84.003906 279.382812 94.140625 C 269.625 102.242188 265.082031 92.511719 259.941406 87.253906 C 255.226562 82.429688 246.109375 78.351562 254.253906 69.0625 C 263.820312 58.160156 273.164062 47.066406 284.070312 34.34375 Z M 284.070312 34.34375 " fill-opacity="1" fill-rule="nonzero"/><path fill="#eb081e" d="M 92.765625 32.761719 C 103.054688 45.234375 111.410156 55.789062 120.226562 65.9375 C 128.945312 75.96875 119.261719 80.183594 114.105469 85.191406 C 108.972656 90.179688 104.6875 99.863281 94.722656 90.960938 C 83.894531 81.285156 72.542969 72.203125 59.304688 61.085938 Z M 92.765625 32.761719 " fill-opacity="1" fill-rule="nonzero"/><path fill="#000000" d="M 33.839844 176.886719 L 127.335938 176.886719 L 127.335938 192.972656 L 33.839844 192.972656 Z M 33.839844 176.886719 " fill-opacity="1" fill-rule="nonzero"/><path fill="#000000" d="M 341.402344 176.96875 L 341.402344 192.824219 L 247.707031 192.824219 C 247.480469 187.839844 247.253906 182.933594 246.980469 176.96875 Z M 341.402344 176.96875 " fill-opacity="1" fill-rule="nonzero"/><path fill="#cfc9c9" d="M 162.851562 184.84375 C 162.859375 170.125 172.53125 160.273438 187.125 160.121094 C 201.828125 159.96875 211.808594 169.582031 212.082031 184.160156 C 212.367188 199.527344 202.257812 209.808594 187.042969 209.625 C 172.503906 209.449219 162.847656 199.558594 162.851562 184.84375 Z M 162.851562 184.84375 " fill-opacity="1" fill-rule="nonzero"/><g clip-path="url(#8593e17919)"><path stroke-linecap="butt" transform="matrix(0.141442, 0.000000000000000004, -0.000000000000000004, 0.140815, -433.548591, 247.570589)" fill-opacity="1" fill="#0061ff" fill-rule="nonzero" stroke-linejoin="round" d="M 3452.185391 257.178843 L 3443.927793 103.774693 L 3429.704839 106.299065 L 3432.245639 57.975371 L 3555.52965 39.583517 L 3558.07045 83.82938 L 3488.087993 95.424847 L 3489.717419 127.159811 L 3542.190453 118.809964 L 3544.75887 155.42723 L 3491.429697 165.413757 L 3497.229348 257.178843 C 3494.799018 257.511728 3490.711645 257.955573 3484.939611 258.538121 C 3479.167578 259.120668 3473.892657 259.398072 3469.059614 259.398072 C 3461.464833 259.398072 3455.830886 258.649082 3452.185391 257.178843 Z M 3452.185391 257.178843 " stroke="#0061ff" stroke-width="2.08" stroke-opacity="1" stroke-miterlimit="2"/></g><g clip-path="url(#96af32090a)"><path fill="#ffb500" d="M 54.734375 282.550781 L 53.566406 260.949219 L 51.554688 261.304688 L 51.914062 254.503906 L 69.351562 251.910156 L 69.710938 258.140625 L 59.8125 259.773438 L 60.042969 264.242188 L 67.464844 263.066406 L 67.828125 268.226562 L 60.285156 269.628906 L 61.105469 282.550781 C 60.761719 282.597656 60.183594 282.660156 59.367188 282.742188 C 58.550781 282.824219 57.804688 282.863281 57.121094 282.863281 C 56.046875 282.863281 55.25 282.757812 54.734375 282.550781 Z M 54.734375 282.550781 " fill-opacity="1" fill-rule="nonzero"/></g><g clip-path="url(#5d1213436c)"><path stroke-linecap="butt" transform="matrix(0.141442, 0.000000000000000004, -0.000000000000000004, 0.140815, -433.548591, 246.336781)" fill="none" stroke-linejoin="round" d="M 3452.185391 257.174822 L 3443.927793 103.770672 L 3429.704839 106.295044 L 3432.245639 57.99909 L 3555.52965 39.579496 L 3558.07045 83.825358 L 3488.087993 95.420826 L 3489.717419 127.155789 L 3542.190453 118.805943 L 3544.75887 155.450949 L 3491.429697 165.409735 L 3497.229348 257.174822 C 3494.799018 257.507706 3490.711645 257.951552 3484.939611 258.534099 C 3479.167578 259.116647 3473.892657 259.39405 3469.059614 259.39405 C 3461.464833 259.39405 3455.830886 258.645061 3452.185391 257.174822 Z M 3452.185391 257.174822 " stroke="#0061ff" stroke-width="2.08" stroke-opacity="1" stroke-miterlimit="2"/></g><g clip-path="url(#5cb9a7a3a0)"><path fill="#0061ff" d="M 90.410156 253 L 103.253906 283.578125 L 97.792969 284.105469 L 91.691406 270.039062 L 88.269531 269.507812 L 82.921875 280.722656 L 76.167969 281.046875 Z M 88.488281 266.433594 L 91.585938 266.859375 L 90.304688 261.886719 Z M 88.488281 266.433594 " fill-opacity="1" fill-rule="nonzero"/></g><g clip-path="url(#7393ce676a)"><path stroke-linecap="butt" transform="matrix(0.128452, 0, 0, 0.126997, 53.082687, 240.278027)" fill="none" stroke-linejoin="round" d="M 290.593918 100.175005 L 390.582365 340.952416 L 348.069029 345.104812 L 300.568434 234.343511 L 273.929177 230.160358 L 232.297734 318.467965 L 179.718651 321.020919 Z M 275.632143 205.953431 L 299.747361 209.306105 L 289.772845 170.150556 Z M 275.632143 205.953431 " stroke="#0061ff" stroke-width="2.08" stroke-opacity="1" stroke-miterlimit="2"/></g><g clip-path="url(#8aa1da2763)"><path fill="#ffb500" d="M 90.410156 251.886719 L 103.253906 282.464844 L 97.792969 282.992188 L 91.691406 268.925781 L 88.269531 268.394531 L 82.921875 279.609375 L 76.167969 279.933594 Z M 88.488281 265.320312 L 91.585938 265.746094 L 90.304688 260.773438 Z M 88.488281 265.320312 " fill-opacity="1" fill-rule="nonzero"/></g><g clip-path="url(#c9938ea3eb)"><path stroke-linecap="butt" transform="matrix(0.128452, 0, 0, 0.126997, 53.082687, 239.165271)" fill="none" stroke-linejoin="round" d="M 290.593918 100.170862 L 390.582365 340.948274 L 348.069029 345.100669 L 300.568434 234.339369 L 273.929177 230.156215 L 232.297734 318.463822 L 179.718651 321.016776 Z M 275.632143 205.949288 L 299.747361 209.301963 L 289.772845 170.146413 Z M 275.632143 205.949288 " stroke="#0061ff" stroke-width="2.08" stroke-opacity="1" stroke-miterlimit="2"/></g><g clip-path="url(#748efb19b2)"><path stroke-linecap="butt" transform="matrix(0.163144, 0, 0, 0.162349, -29.501405, 241.174232)" fill-opacity="1" fill="#0061ff" fill-rule="nonzero" stroke-linejoin="round" d="M 917.667509 114.924293 L 925.99985 159.990317 C 928.442088 157.87296 932.153332 154.432254 937.133582 149.620079 C 942.137775 144.783842 947.070138 139.273901 951.954613 133.090256 C 956.815146 126.882549 959.257383 121.805704 959.257383 117.85972 C 959.257383 114.683684 957.341903 112.590388 953.463054 111.55577 C 950.206737 110.882066 947.237742 110.545213 944.508182 110.545213 C 941.060317 110.545213 937.660339 110.833944 934.356135 111.411405 C 931.027987 111.988866 925.44915 113.167849 917.667509 114.924293 Z M 940.964543 213.285161 C 951.188421 209.026386 957.916547 204.791671 961.148921 200.629139 C 964.381294 196.442547 965.985509 192.616867 965.985509 189.079918 C 965.985509 186.168552 963.926368 182.511298 959.832028 178.084097 C 955.713744 173.680956 952.481371 171.250808 950.110963 170.76959 C 947.070138 173.825322 944.22086 176.135166 941.563131 177.747245 C 938.929345 179.335263 937.061751 180.321759 935.984293 180.730793 Z M 1000.990918 169.13345 C 1007.886649 180.057089 1011.358457 190.403266 1011.358457 200.171983 C 1011.358457 212.17836 1006.761304 222.235807 997.566997 230.368384 C 988.37269 238.525021 979.178382 244.371815 969.960132 247.980946 C 960.717937 251.566017 953.846151 253.875861 949.296884 254.886418 L 914.315418 264.149856 L 880.938168 130.780412 C 880.459298 130.780412 879.669162 131.405994 878.543817 132.609038 C 877.418472 133.836143 876.005805 135.520404 874.281872 137.661823 C 872.55794 139.803241 871.456538 141.102528 870.977668 141.583746 C 870.762177 141.583746 870.115702 140.116032 868.990357 137.204666 C 867.865012 134.2933 866.380515 130.227011 864.512921 125.053923 C 862.645327 119.856773 860.538299 114.082162 858.215778 107.754152 C 855.869314 101.40208 854.289043 97.432035 853.474964 95.795895 C 861.687587 93.077016 869.397397 90.574685 876.604393 88.264841 C 883.835332 85.954997 891.449368 83.765457 899.4465 81.696221 C 907.467575 79.626986 915.105554 77.990846 922.384381 76.763741 C 929.687151 75.560697 936.84626 74.935115 943.909595 74.935115 C 949.392658 74.935115 954.444738 75.36821 959.065835 76.210341 C 963.686932 77.052472 968.044651 78.472064 972.138991 80.445056 C 976.233331 82.393987 979.896688 85.040683 983.129061 88.312963 C 986.337491 91.609303 988.971277 95.483104 991.006475 99.958427 C 991.820555 101.787054 992.227594 103.808168 992.227594 105.973647 C 992.227594 114.996476 985.403694 127.700619 971.779838 144.110138 C 974.293907 144.44699 978.292473 146.323738 983.775536 149.716322 C 989.282543 153.108906 995.005041 159.581282 1000.990918 169.13345 Z M 1000.990918 169.13345 " stroke="#0061ff" stroke-width="2.08" stroke-opacity="1" stroke-miterlimit="2"/></g><g clip-path="url(#ca6568ca18)"><path stroke-linecap="butt" transform="matrix(0.163144, 0, 0, 0.162349, -29.501405, 239.751899)" fill-opacity="1" fill="#ffb500" fill-rule="nonzero" stroke-linejoin="round" d="M 917.667509 114.927117 L 925.99985 159.993141 C 928.442088 157.875784 932.153332 154.435078 937.133582 149.598842 C 942.137775 144.786667 947.070138 139.276726 951.954613 133.069019 C 956.815146 126.885374 959.257383 121.808528 959.257383 117.862544 C 959.257383 114.686509 957.341903 112.569151 953.463054 111.558595 C 950.206737 110.88489 947.237742 110.548038 944.508182 110.548038 C 941.060317 110.548038 937.660339 110.836768 934.356135 111.414229 C 931.027987 111.99169 925.44915 113.146612 917.667509 114.927117 Z M 940.964543 213.287985 C 951.188421 209.005149 957.916547 204.794495 961.148921 200.631963 C 964.381294 196.445371 965.985509 192.59563 965.985509 189.082742 C 965.985509 186.171376 963.926368 182.490062 959.832028 178.086921 C 955.713744 173.683781 952.481371 171.253632 950.110963 170.772414 C 947.070138 173.828146 944.22086 176.13799 941.563131 177.726008 C 938.929345 179.338087 937.061751 180.324583 935.984293 180.733618 Z M 1000.990918 169.136275 C 1007.886649 180.059913 1011.358457 190.40609 1011.358457 200.174807 C 1011.358457 212.181185 1006.761304 222.238632 997.566997 230.371208 C 988.37269 238.527846 979.178382 244.374639 969.960132 247.983771 C 960.717937 251.568841 953.846151 253.878686 949.296884 254.889242 L 914.315418 264.15268 L 880.938168 130.783236 C 880.459298 130.783236 879.669162 131.408819 878.543817 132.611862 C 877.418472 133.838967 876.005805 135.523229 874.281872 137.664647 C 872.55794 139.782004 871.456538 141.105352 870.977668 141.562509 C 870.762177 141.562509 870.115702 140.118856 868.990357 137.20749 C 867.865012 134.272063 866.380515 130.229836 864.512921 125.032686 C 862.645327 119.859597 860.538299 114.084987 858.215778 107.756976 C 855.869314 101.404904 854.289043 97.434859 853.474964 95.79872 C 861.687587 93.079841 869.397397 90.577509 876.604393 88.267665 C 883.835332 85.957821 891.449368 83.768281 899.4465 81.699045 C 907.467575 79.62981 915.105554 77.99367 922.384381 76.766566 C 929.687151 75.563522 936.84626 74.937939 943.909595 74.937939 C 949.392658 74.937939 954.444738 75.371035 959.065835 76.213165 C 963.686932 77.055296 968.044651 78.474888 972.138991 80.44788 C 976.233331 82.396811 979.896688 85.019447 983.129061 88.315787 C 986.337491 91.612127 988.971277 95.485928 991.006475 99.961252 C 991.820555 101.789878 992.227594 103.810992 992.227594 105.976471 C 992.227594 114.9993 985.403694 127.703443 971.779838 144.112962 C 974.293907 144.449814 978.292473 146.326563 983.775536 149.719146 C 989.282543 153.11173 995.005041 159.584106 1000.990918 169.136275 Z M 1000.990918 169.136275 " stroke="#0061ff" stroke-width="2.08" stroke-opacity="1" stroke-miterlimit="2"/></g><g clip-path="url(#f6f95473f0)"><path stroke-linecap="butt" transform="matrix(0.160687, 0, 0, 0.161495, -1649.986639, 235.643013)" fill-opacity="1" fill="#0061ff" fill-rule="nonzero" stroke-linejoin="round" d="M 11212.397595 155.490589 L 11218.207611 185.411283 C 11222.607666 184.443759 11227.591152 180.597849 11233.206691 173.800989 C 11238.700682 167.028318 11241.496296 161.610181 11241.496296 157.52239 C 11241.496296 155.418024 11240.596838 154.18443 11238.992398 153.773233 C 11232.088445 152.0075 11227.493914 151.11254 11225.111564 151.11254 C 11220.71151 151.11254 11216.408694 152.588015 11212.397595 155.490589 Z M 11236.901764 201.883387 C 11234.397866 204.326387 11231.796729 206.84195 11228.903876 209.454267 C 11226.108261 212.066583 11224.212105 213.783939 11223.093859 214.606334 L 11236.4885 288.767086 L 11201.506853 297.910192 L 11180.600518 165.456091 C 11180.211563 165.456091 11179.506582 166.084982 11178.291097 167.294387 C 11177.197161 168.527981 11175.68996 170.245337 11173.891043 172.494831 C 11171.994887 174.720138 11170.900951 175.977919 11170.706473 176.243989 C 11170.511996 176.243989 11169.807015 174.792702 11168.688769 171.86594 C 11167.594833 168.963367 11166.087632 164.899764 11164.191476 159.723508 C 11162.29532 154.523064 11160.204686 148.766293 11157.895266 142.429008 C 11155.610155 136.091723 11154.005715 132.100684 11153.203495 130.480081 C 11161.395861 127.746824 11169.102034 125.255448 11176.297703 122.93339 C 11183.493371 120.635519 11191.102305 118.458589 11199.100194 116.378411 C 11207.098082 114.322422 11214.804254 112.67763 11222.097162 111.444036 C 11229.39007 110.234631 11236.4885 109.60574 11243.611239 109.60574 C 11249.10523 109.60574 11254.088717 110.041126 11258.804797 110.88771 C 11263.399329 111.734294 11267.702144 113.137204 11271.810482 115.120629 C 11275.89451 117.079867 11279.589583 119.716371 11282.798463 123.005954 C 11286.007342 126.271349 11288.705718 130.165635 11290.699113 134.640436 C 11291.404094 135.99497 11291.69581 137.736514 11291.69581 139.84088 C 11291.69581 143.154651 11290.699113 146.807056 11288.705718 150.773907 C 11286.712323 154.740757 11284.111186 158.9253 11280.805068 163.375913 C 11277.49895 167.826526 11273.803877 172.422267 11269.792778 177.163137 C 11273.609399 177.574335 11277.109995 180.259215 11280.61059 185.241966 C 11283.989638 190.224717 11286.493536 196.126617 11288.097976 202.899288 L 11305.600954 292.927441 L 11274.800574 299.651736 L 11252.289799 217.146086 C 11251.900844 215.985057 11251.195863 214.243513 11250.004688 211.897266 C 11248.789204 209.551019 11247.306313 207.22896 11245.288608 204.93109 C 11243.392452 202.633219 11241.301819 201.47219 11238.992398 201.47219 C 11238.506204 201.47219 11237.801223 201.617318 11236.901764 201.883387 Z M 11236.901764 201.883387 " stroke="#0061ff" stroke-width="2.08" stroke-opacity="1" stroke-miterlimit="2"/></g><g clip-path="url(#058e1841cc)"><path stroke-linecap="butt" transform="matrix(0.160687, 0, 0, 0.161495, -1649.986639, 234.228001)" fill-opacity="1" fill="#ffb500" fill-rule="nonzero" stroke-linejoin="round" d="M 11212.397595 155.496462 L 11218.207611 185.392969 C 11222.607666 184.449633 11227.591152 180.579535 11233.206691 173.806863 C 11238.700682 167.034192 11241.496296 161.591867 11241.496296 157.528264 C 11241.496296 155.423898 11240.596838 154.166116 11238.992398 153.754918 C 11232.088445 152.013374 11227.493914 151.118414 11225.111564 151.118414 C 11220.71151 151.118414 11216.408694 152.569701 11212.397595 155.496462 Z M 11236.901764 201.889261 C 11234.397866 204.332261 11231.796729 206.847824 11228.903876 209.46014 C 11226.108261 212.072457 11224.212105 213.789813 11223.093859 214.58802 L 11236.4885 288.748772 L 11201.506853 297.916066 L 11180.600518 165.461965 C 11180.211563 165.461965 11179.506582 166.066667 11178.291097 167.300261 C 11177.197161 168.509667 11175.68996 170.251211 11173.891043 172.476517 C 11171.994887 174.726012 11170.900951 175.983793 11170.706473 176.249863 C 11170.511996 176.249863 11169.807015 174.798576 11168.688769 171.871814 C 11167.594833 168.945053 11166.087632 164.905638 11164.191476 159.705194 C 11162.29532 154.528938 11160.204686 148.772167 11157.895266 142.434882 C 11155.610155 136.073408 11154.005715 132.106558 11153.203495 130.461766 C 11161.395861 127.752698 11169.102034 125.237134 11176.297703 122.939264 C 11183.493371 120.641393 11191.102305 118.440275 11199.100194 116.384285 C 11207.098082 114.304108 11214.804254 112.659316 11222.097162 111.44991 C 11229.39007 110.216317 11236.4885 109.611614 11243.611239 109.611614 C 11249.10523 109.611614 11254.088717 110.047 11258.804797 110.893584 C 11263.399329 111.740168 11267.702144 113.143078 11271.810482 115.102315 C 11275.89451 117.08574 11279.589583 119.698057 11282.798463 122.98764 C 11286.007342 126.277223 11288.705718 130.171509 11290.699113 134.64631 C 11291.404094 136.000844 11291.69581 137.7182 11291.69581 139.822566 C 11291.69581 143.160525 11290.699113 146.788742 11288.705718 150.755592 C 11286.712323 154.722443 11284.111186 158.931174 11280.805068 163.381787 C 11277.49895 167.8324 11273.803877 172.403953 11269.792778 177.169011 C 11273.609399 177.580209 11277.109995 180.265089 11280.61059 185.24784 C 11283.989638 190.230591 11286.493536 196.108303 11288.097976 202.905162 L 11305.600954 292.933315 L 11274.800574 299.633422 L 11252.289799 217.15196 C 11251.900844 215.990931 11251.195863 214.249387 11250.004688 211.90314 C 11248.789204 209.556893 11247.306313 207.234834 11245.288608 204.936964 C 11243.392452 202.639093 11241.301819 201.478063 11238.992398 201.478063 C 11238.506204 201.478063 11237.801223 201.599004 11236.901764 201.889261 Z M 11236.901764 201.889261 " stroke="#0061ff" stroke-width="2.08" stroke-opacity="1" stroke-miterlimit="2"/></g><g clip-path="url(#46ef934e04)"><path fill="#0061ff" d="M 186.460938 276.683594 L 194.933594 276.816406 L 194.800781 284.046875 L 174.71875 284.046875 L 175.535156 277.644531 L 180.191406 277.496094 L 180.855469 263.0625 L 173.617188 264.292969 L 174.035156 256.394531 L 194.25 253.382812 L 194.664062 260.617188 L 187.695312 261.980469 Z M 186.460938 276.683594 " fill-opacity="1" fill-rule="nonzero"/></g><g clip-path="url(#a6e6eb1527)"><path stroke-linecap="butt" transform="matrix(0.163946, 0, 0, 0.163471, -709.333533, 233.901225)" fill="none" stroke-linejoin="round" d="M 5463.951381 261.712763 L 5515.630849 262.525217 L 5514.820751 306.756194 L 5392.329214 306.756194 L 5397.308932 267.59111 L 5425.710004 266.683073 L 5429.760493 178.38839 L 5385.610168 185.915542 L 5388.159593 137.598397 L 5511.461229 119.174798 L 5513.986827 163.42967 L 5471.480524 171.769276 Z M 5463.951381 261.712763 " stroke="#0061ff" stroke-width="2.08" stroke-opacity="1" stroke-miterlimit="2"/></g><g clip-path="url(#a7e89931c5)"><path fill="#ffb500" d="M 186.460938 275.25 L 194.933594 275.382812 L 194.800781 282.617188 L 174.71875 282.617188 L 175.535156 276.214844 L 180.191406 276.066406 L 180.855469 261.628906 L 173.617188 262.859375 L 174.035156 254.960938 L 194.25 251.953125 L 194.664062 259.1875 L 187.695312 260.550781 Z M 186.460938 275.25 " fill-opacity="1" fill-rule="nonzero"/></g><g clip-path="url(#53707a6eb1)"><path stroke-linecap="butt" transform="matrix(0.163946, 0, 0, 0.163471, -709.333533, 232.4689)" fill="none" stroke-linejoin="round" d="M 5463.951381 261.705 L 5515.630849 262.517454 L 5514.820751 306.772326 L 5392.329214 306.772326 L 5397.308932 267.607243 L 5425.710004 266.699205 L 5429.760493 178.380627 L 5385.610168 185.907778 L 5388.159593 137.590634 L 5511.461229 119.19093 L 5513.986827 163.445802 L 5471.480524 171.785408 Z M 5463.951381 261.705 " stroke="#0061ff" stroke-width="2.08" stroke-opacity="1" stroke-miterlimit="2"/></g><g clip-path="url(#268ce8d725)"><path stroke-linecap="butt" transform="matrix(0.143047, 0, 0, 0.142233, -2139.290711, 245.544433)" fill-opacity="1" fill="#0061ff" fill-rule="nonzero" stroke-linejoin="round" d="M 16537.313639 261.829495 L 16377.29232 270.974937 L 16453.206871 102.621896 L 16370.711239 109.323061 L 16364.812842 62.634616 L 16540.590526 53.489173 L 16458.996038 229.367293 L 16539.689382 223.462578 Z M 16537.313639 261.829495 " stroke="#0061ff" stroke-width="2.08" stroke-opacity="1" stroke-miterlimit="2"/></g><g clip-path="url(#620bb6dc5c)"><path stroke-linecap="butt" transform="matrix(0.143047, 0, 0, 0.142233, -2139.290711, 244.298187)" fill-opacity="1" fill="#ffb500" fill-rule="nonzero" stroke-linejoin="round" d="M 16537.313639 261.830562 L 16377.29232 270.976004 L 16453.206871 102.622963 L 16370.711239 109.324128 L 16364.812842 62.635683 L 16540.590526 53.49024 L 16458.996038 229.36836 L 16539.689382 223.463645 Z M 16537.313639 261.830562 " stroke="#0061ff" stroke-width="2.08" stroke-opacity="1" stroke-miterlimit="2"/></g><g clip-path="url(#f8b1044bfc)"><path stroke-linecap="butt" transform="matrix(0.143047, 0, 0, 0.142233, -2107.495873, 245.544433)" fill-opacity="1" fill="#0061ff" fill-rule="nonzero" stroke-linejoin="round" d="M 16537.300572 261.829495 L 16377.306561 270.974937 L 16453.193804 102.621896 L 16370.698172 109.323061 L 16364.799775 62.634616 L 16540.604766 53.489173 L 16459.010278 229.367293 L 16539.703623 223.462578 Z M 16537.300572 261.829495 " stroke="#0061ff" stroke-width="2.08" stroke-opacity="1" stroke-miterlimit="2"/></g><g clip-path="url(#38e5391f52)"><path stroke-linecap="butt" transform="matrix(0.143047, 0, 0, 0.142233, -2107.495873, 244.298187)" fill-opacity="1" fill="#ffb500" fill-rule="nonzero" stroke-linejoin="round" d="M 16537.300572 261.830562 L 16377.306561 270.976004 L 16453.193804 102.622963 L 16370.698172 109.324128 L 16364.799775 62.635683 L 16540.604766 53.49024 L 16459.010278 229.36836 L 16539.703623 223.463645 Z M 16537.300572 261.830562 " stroke="#0061ff" stroke-width="2.08" stroke-opacity="1" stroke-miterlimit="2"/></g><g clip-path="url(#0ad4491db6)"><path stroke-linecap="butt" transform="matrix(0.163946, 0, 0, 0.163471, -617.697147, 233.901225)" fill-opacity="1" fill="#0061ff" fill-rule="nonzero" stroke-linejoin="round" d="M 5463.929584 261.712763 L 5515.609053 262.525217 L 5514.798955 306.756194 L 5392.331243 306.756194 L 5397.310961 267.59111 L 5425.712034 266.683073 L 5429.762522 178.38839 L 5385.612198 185.915542 L 5388.161623 137.598397 L 5511.439432 119.174798 L 5513.988857 163.42967 L 5471.458728 171.769276 Z M 5463.929584 261.712763 " stroke="#0061ff" stroke-width="2.08" stroke-opacity="1" stroke-miterlimit="2"/></g><g clip-path="url(#4e051716e3)"><path stroke-linecap="butt" transform="matrix(0.163946, 0, 0, 0.163471, -617.697147, 232.4689)" fill-opacity="1" fill="#ffb500" fill-rule="nonzero" stroke-linejoin="round" d="M 5463.929584 261.705 L 5515.609053 262.517454 L 5514.798955 306.772326 L 5392.331243 306.772326 L 5397.310961 267.607243 L 5425.712034 266.699205 L 5429.762522 178.380627 L 5385.612198 185.907778 L 5388.161623 137.590634 L 5511.439432 119.19093 L 5513.988857 163.445802 L 5471.458728 171.785408 Z M 5463.929584 261.705 " stroke="#0061ff" stroke-width="2.08" stroke-opacity="1" stroke-miterlimit="2"/></g><g clip-path="url(#a45a866f73)"><path stroke-linecap="butt" transform="matrix(0.174876, 0, 0, 0.173722, -1309.504134, 237.46724)" fill-opacity="1" fill="#0061ff" fill-rule="nonzero" stroke-linejoin="round" d="M 9313.967433 109.783761 C 9330.027882 122.038455 9338.069275 138.430513 9338.069275 158.914964 C 9338.069275 165.952981 9337.064101 173.23834 9335.07609 180.72607 C 9333.065742 188.2138 9330.273591 195.386731 9326.677301 202.244862 C 9323.081012 209.102994 9319.127327 215.196612 9314.771572 220.548203 C 9307.668341 229.362588 9300.609785 236.805347 9293.662915 242.831508 C 9286.716044 248.857669 9279.724499 253.759547 9272.665943 257.537141 C 9265.607387 261.292248 9258.79454 264.013015 9252.227402 265.721927 C 9245.637927 267.408352 9239.182475 268.262808 9232.883383 268.262808 C 9218.230178 268.262808 9204.984216 264.327815 9193.100824 256.457828 C 9185.104105 251.03878 9178.469955 242.56168 9173.220713 231.026528 C 9167.97147 219.491376 9165.33568 207.124254 9165.33568 193.902677 C 9165.33568 172.676198 9172.081515 154.372858 9185.595523 138.970169 C 9193.525231 129.885956 9201.857008 121.813598 9210.613191 114.753096 C 9219.369375 107.715079 9228.415943 102.161117 9237.775231 98.136181 C 9247.134519 94.088759 9256.694843 92.065049 9266.456201 92.065049 C 9282.538987 92.065049 9298.353727 97.978781 9313.967433 109.783761 Z M 9293.930961 136.024546 C 9292.568392 143.624704 9289.820916 149.898208 9285.688533 154.845057 C 9281.55615 159.791906 9277.267407 162.26533 9272.866978 162.26533 C 9270.097165 162.26533 9267.684747 161.208503 9265.629724 159.117335 C 9264.557538 158.015537 9263.66405 156.396568 9262.94926 154.237944 C 9262.234469 152.056833 9261.877074 149.965665 9261.877074 147.919469 C 9261.877074 143.782104 9263.127957 139.689711 9265.58505 135.664775 C 9268.064479 131.617353 9272.018164 128.109588 9277.446105 125.141478 C 9270.923641 125.141478 9265.384015 126.648019 9260.804888 129.661099 C 9256.225761 132.67418 9252.852843 136.519231 9250.686135 141.196251 C 9248.519426 145.895758 9247.424903 150.730178 9247.424903 155.744484 C 9247.424903 163.614471 9249.747972 169.393289 9254.349436 173.035969 C 9259.9114 177.533104 9265.473364 179.759186 9271.035327 179.759186 C 9277.870512 179.759186 9283.655847 176.701134 9288.324323 170.607516 C 9293.015136 164.491412 9295.360542 156.936225 9295.360542 147.919469 C 9295.360542 143.714647 9294.869124 139.757168 9293.930961 136.024546 Z M 9293.930961 136.024546 " stroke="#0061ff" stroke-width="2.08" stroke-opacity="1" stroke-miterlimit="2"/></g><g clip-path="url(#62bbaa826b)"><path stroke-linecap="butt" transform="matrix(0.174876, 0, 0, 0.173722, -1309.504134, 235.945091)" fill-opacity="1" fill="#ffb500" fill-rule="nonzero" stroke-linejoin="round" d="M 9313.967433 109.776347 C 9330.027882 122.053527 9338.069275 138.423099 9338.069275 158.90755 C 9338.069275 165.968052 9337.064101 173.230926 9335.07609 180.718656 C 9333.065742 188.228872 9330.273591 195.401803 9326.677301 202.237448 C 9323.081012 209.09558 9319.127327 215.189198 9314.771572 220.563275 C 9307.668341 229.37766 9300.609785 236.797933 9293.662915 242.824094 C 9286.716044 248.872741 9279.724499 253.774618 9272.665943 257.529726 C 9265.607387 261.284834 9258.79454 264.028087 9252.227402 265.714513 C 9245.637927 267.423424 9239.182475 268.255394 9232.883383 268.255394 C 9218.230178 268.255394 9204.984216 264.320401 9193.100824 256.4729 C 9185.104105 251.031366 9178.469955 242.554266 9173.220713 231.019114 C 9167.97147 219.506448 9165.33568 207.11684 9165.33568 193.895262 C 9165.33568 172.668784 9172.081515 154.365443 9185.595523 138.962755 C 9193.525231 129.878542 9201.857008 121.806184 9210.613191 114.768167 C 9219.369375 107.707665 9228.415943 102.153703 9237.775231 98.128767 C 9247.134519 94.081345 9256.694843 92.08012 9266.456201 92.08012 C 9282.538987 92.08012 9298.353727 97.971367 9313.967433 109.776347 Z M 9293.930961 136.017132 C 9292.568392 143.61729 9289.820916 149.890794 9285.688533 154.837643 C 9281.55615 159.784491 9277.267407 162.257916 9272.866978 162.257916 C 9270.097165 162.257916 9267.684747 161.223575 9265.629724 159.109921 C 9264.557538 158.030609 9263.66405 156.389154 9262.94926 154.230529 C 9262.234469 152.049419 9261.877074 149.958251 9261.877074 147.912054 C 9261.877074 143.77469 9263.127957 139.704782 9265.58505 135.657361 C 9268.064479 131.632425 9272.018164 128.124659 9277.446105 125.134064 C 9270.923641 125.134064 9265.384015 126.640605 9260.804888 129.653685 C 9256.225761 132.689251 9252.852843 136.534302 9250.686135 141.211323 C 9248.519426 145.888343 9247.424903 150.74525 9247.424903 155.759555 C 9247.424903 163.629542 9249.747972 169.385875 9254.349436 173.05104 C 9259.9114 177.52569 9265.473364 179.751772 9271.035327 179.751772 C 9277.870512 179.751772 9283.655847 176.716206 9288.324323 170.600102 C 9293.015136 164.506483 9295.360542 156.951296 9295.360542 147.912054 C 9295.360542 143.707233 9294.869124 139.749754 9293.930961 136.017132 Z M 9293.930961 136.017132 " stroke="#0061ff" stroke-width="2.08" stroke-opacity="1" stroke-miterlimit="2"/></g><g clip-path="url(#da5adedd1a)"><path stroke-linecap="butt" transform="matrix(0.119206, 0, 0, 0.116774, -1054.71931, 272.918449)" fill-opacity="1" fill="#0061ff" fill-rule="nonzero" stroke-linejoin="round" d="M 9750.115874 176.61975 C 9758.308115 173.876728 9766.041592 171.367866 9773.250764 169.093165 C 9780.459937 166.785012 9788.095106 164.577214 9796.090734 162.503222 C 9804.086362 160.462681 9811.7543 158.790106 9819.094549 157.585853 C 9824.698042 156.649211 9830.46538 156.147439 9836.363795 156.147439 C 9846.194485 156.147439 9852.649971 156.415051 9855.697485 156.983726 C 9860.317909 157.853465 9864.676182 159.291879 9868.772303 161.232065 C 9872.868424 163.205703 9876.538548 165.848371 9879.749907 169.126617 C 9882.994034 172.404863 9885.615552 176.285235 9887.647228 180.767735 C 9888.466452 182.607567 9888.859679 184.547753 9888.859679 186.588294 C 9888.859679 194.181782 9884.698021 203.514748 9876.407472 214.654094 C 9868.084154 225.759989 9859.760837 235.460921 9851.371981 243.75689 C 9843.015895 252.019408 9836.724253 257.940322 9832.595363 261.553083 L 9850.913216 325.746491 L 9824.272046 344.947646 L 9777.576268 211.610008 C 9777.445192 211.610008 9776.789813 212.245587 9775.642899 213.516743 C 9774.495985 214.821352 9772.988613 216.493926 9771.120781 218.567918 C 9769.25295 220.641911 9768.073268 221.913067 9767.614502 222.381388 C 9767.385119 222.381388 9766.72974 220.909523 9765.615595 217.999243 C 9764.50145 215.088963 9762.994078 211.041333 9761.126247 205.856352 C 9759.291184 200.671371 9757.193971 194.884264 9754.834605 188.561932 C 9752.508008 182.206149 9750.935098 178.225422 9750.115874 176.61975 Z M 9815.915959 204.886259 L 9824.272046 234.892245 C 9828.466473 230.610455 9833.676739 224.789895 9839.935612 217.397116 C 9846.161716 210.004337 9849.274767 204.652099 9849.274767 201.340401 C 9849.274767 200.035793 9848.750464 199.29986 9847.669088 199.099151 C 9844.621574 198.39667 9841.57406 198.062155 9838.624853 198.062155 C 9829.646156 198.062155 9822.076525 200.336856 9815.915959 204.886259 Z M 9815.915959 204.886259 " stroke="#0061ff" stroke-width="2.08" stroke-opacity="1" stroke-miterlimit="2"/></g><g clip-path="url(#e83057c472)"><path stroke-linecap="butt" transform="matrix(0.119206, 0, 0, 0.116774, -1054.71931, 271.895284)" fill-opacity="1" fill="#ffb500" fill-rule="nonzero" stroke-linejoin="round" d="M 9750.115874 176.617421 C 9758.308115 173.907851 9766.041592 171.398989 9773.250764 169.090836 C 9780.459937 166.782683 9788.095106 164.574885 9796.090734 162.500893 C 9804.086362 160.460352 9811.7543 158.787777 9819.094549 157.583524 C 9824.698042 156.646882 9830.46538 156.14511 9836.363795 156.14511 C 9846.194485 156.14511 9852.649971 156.446173 9855.697485 156.981397 C 9860.317909 157.851136 9864.676182 159.28955 9868.772303 161.229736 C 9872.868424 163.203374 9876.538548 165.846042 9879.749907 169.124288 C 9882.994034 172.402534 9885.615552 176.316358 9887.647228 180.765406 C 9888.466452 182.605238 9888.859679 184.545424 9888.859679 186.585965 C 9888.859679 194.179453 9884.698021 203.512419 9876.407472 214.651765 C 9868.084154 225.75766 9859.760837 235.458592 9851.371981 243.754561 C 9843.015895 252.017079 9836.724253 257.937993 9832.595363 261.550754 L 9850.913216 325.744162 L 9824.272046 344.945317 L 9777.576268 211.607679 C 9777.445192 211.607679 9776.789813 212.243258 9775.642899 213.547866 C 9774.495985 214.819022 9772.988613 216.491597 9771.120781 218.565589 C 9769.25295 220.639582 9768.073268 221.910738 9767.614502 222.379059 C 9767.385119 222.379059 9766.72974 220.940645 9765.615595 217.996914 C 9764.50145 215.086634 9762.994078 211.039004 9761.126247 205.854023 C 9759.291184 200.669042 9757.193971 194.915386 9754.834605 188.559603 C 9752.508008 182.20382 9750.935098 178.223093 9750.115874 176.617421 Z M 9815.915959 204.88393 L 9824.272046 234.889916 C 9828.466473 230.608126 9833.676739 224.787566 9839.935612 217.394787 C 9846.161716 210.002008 9849.274767 204.64977 9849.274767 201.338072 C 9849.274767 200.033464 9848.750464 199.297531 9847.669088 199.096822 C 9844.621574 198.394341 9841.57406 198.059826 9838.624853 198.059826 C 9829.646156 198.059826 9822.076525 200.334527 9815.915959 204.88393 Z M 9815.915959 204.88393 " stroke="#0061ff" stroke-width="2.08" stroke-opacity="1" stroke-miterlimit="2"/></g><g clip-path="url(#19437d1a02)"><path stroke-linecap="butt" transform="matrix(0.127182, 0, 0, 0.124704, -1036.034927, 279.755725)" fill-opacity="1" fill="#0061ff" fill-rule="nonzero" stroke-linejoin="round" d="M 9313.948836 109.776489 C 9330.042958 122.055547 9338.059304 138.438066 9338.059304 158.892723 C 9338.059304 165.971976 9337.076457 173.239174 9335.080049 180.72564 C 9333.083641 188.212107 9330.257955 195.385333 9326.664421 202.245317 C 9323.070886 209.105301 9319.108783 215.182182 9314.778113 220.538608 C 9307.652472 229.372013 9300.618972 236.795831 9293.677614 242.841388 C 9286.705543 248.855621 9279.733471 253.773509 9272.669257 257.532404 C 9265.605044 261.2913 9258.786542 264.016499 9252.213752 265.708002 C 9245.640962 267.399505 9239.191028 268.276581 9232.894664 268.276581 C 9218.244099 268.276581 9204.975663 264.32974 9193.12007 256.467384 C 9185.103723 251.04831 9178.469505 242.559471 9173.217416 231.032191 C 9167.965326 219.504912 9165.354639 207.131881 9165.354639 193.913099 C 9165.354639 172.675339 9172.080999 154.350724 9185.595146 138.970577 C 9193.519351 129.886579 9201.873552 121.804954 9210.59632 114.757025 C 9219.349802 107.709096 9228.410424 102.164725 9237.778185 98.123913 C 9247.115233 94.0831 9256.697992 92.078356 9266.465035 92.078356 C 9282.528443 92.078356 9298.346138 97.967292 9313.948836 109.776489 Z M 9293.923326 136.026109 C 9292.571911 143.606548 9289.807654 149.902698 9285.691982 154.85191 C 9281.545595 159.801122 9277.276353 162.275729 9272.884255 162.275729 C 9270.089284 162.275729 9267.693594 161.210708 9265.635758 159.111992 C 9264.560769 158.015647 9263.670064 156.386792 9262.963642 154.225427 C 9262.226507 152.064063 9261.888653 149.965346 9261.888653 147.929278 C 9261.888653 143.794493 9263.117212 139.691032 9265.605044 135.650219 C 9268.062162 131.640731 9272.024264 128.132428 9277.429923 125.125312 C 9270.918561 125.125312 9265.390046 126.62887 9260.813664 129.66731 C 9256.237282 132.674427 9252.858745 136.527295 9250.678053 141.19459 C 9248.528075 145.893209 9247.422372 150.748449 9247.422372 155.76031 C 9247.422372 163.622666 9249.72592 169.386306 9254.36373 173.051229 C 9259.922959 177.530579 9265.482188 179.754592 9271.041417 179.754592 C 9277.890633 179.754592 9283.66486 176.716152 9288.333383 170.607947 C 9293.001907 164.499742 9295.336169 156.950627 9295.336169 147.929278 C 9295.336169 143.70052 9294.875459 139.75368 9293.923326 136.026109 Z M 9293.923326 136.026109 " stroke="#0061ff" stroke-width="2.08" stroke-opacity="1" stroke-miterlimit="2"/></g><g clip-path="url(#893533ff14)"><path stroke-linecap="butt" transform="matrix(0.127182, 0, 0, 0.124704, -1036.034927, 278.663067)" fill-opacity="1" fill="#ffb500" fill-rule="nonzero" stroke-linejoin="round" d="M 9313.948836 109.767728 C 9330.042958 122.046787 9338.059304 138.429306 9338.059304 158.915286 C 9338.059304 165.963215 9337.076457 173.230413 9335.080049 180.71688 C 9333.083641 188.234671 9330.257955 195.407896 9326.664421 202.236556 C 9323.070886 209.096541 9319.108783 215.204746 9314.778113 220.561172 C 9307.652472 229.363252 9300.618972 236.787071 9293.677614 242.832628 C 9286.705543 248.878184 9279.733471 253.764748 9272.669257 257.523644 C 9265.605044 261.282539 9258.786542 264.007739 9252.213752 265.730566 C 9245.640962 267.422069 9239.191028 268.26782 9232.894664 268.26782 C 9218.244099 268.26782 9204.975663 264.32098 9193.12007 256.458624 C 9185.103723 251.039549 9178.469505 242.55071 9173.217416 231.023431 C 9167.965326 219.496151 9165.354639 207.123121 9165.354639 193.904338 C 9165.354639 172.666579 9172.080999 154.373288 9185.595146 138.961816 C 9193.519351 129.877819 9201.873552 121.796194 9210.59632 114.748265 C 9219.349802 107.700336 9228.410424 102.155965 9237.778185 98.115152 C 9247.115233 94.105664 9256.697992 92.069595 9266.465035 92.069595 C 9282.528443 92.069595 9298.346138 97.958531 9313.948836 109.767728 Z M 9293.923326 136.017348 C 9292.571911 143.629111 9289.807654 149.893937 9285.691982 154.84315 C 9281.545595 159.792362 9277.276353 162.266968 9272.884255 162.266968 C 9270.089284 162.266968 9267.693594 161.201948 9265.635758 159.103231 C 9264.560769 158.038211 9263.670064 156.409356 9262.963642 154.216667 C 9262.226507 152.055302 9261.888653 149.956585 9261.888653 147.920517 C 9261.888653 143.785732 9263.117212 139.713595 9265.605044 135.672783 C 9268.062162 131.63197 9272.024264 128.123668 9277.429923 125.147875 C 9270.918561 125.147875 9265.390046 126.651434 9260.813664 129.65855 C 9256.237282 132.665666 9252.858745 136.518534 9250.678053 141.217153 C 9248.528075 145.884449 9247.422372 150.739689 9247.422372 155.751549 C 9247.422372 163.613906 9249.72592 169.377545 9254.36373 173.042468 C 9259.922959 177.521819 9265.482188 179.745832 9271.041417 179.745832 C 9277.890633 179.745832 9283.66486 176.707391 9288.333383 170.599186 C 9293.001907 164.490981 9295.336169 156.941866 9295.336169 147.920517 C 9295.336169 143.723084 9294.875459 139.744919 9293.923326 136.017348 Z M 9293.923326 136.017348 " stroke="#0061ff" stroke-width="2.08" stroke-opacity="1" stroke-miterlimit="2"/></g><g clip-path="url(#bfdfdd5a5e)"><path fill="#0061ff" d="M 157.570312 293.113281 L 162.769531 290.988281 L 162.769531 294.261719 L 165.53125 291.394531 L 169.050781 294.261719 L 164.027344 301.367188 L 174.507812 309.226562 L 174.753906 313.226562 L 164.109375 307.589844 L 164.367188 312.488281 L 159.496094 312.578125 L 158.574219 295.238281 L 157.070312 295.570312 Z M 157.570312 293.113281 " fill-opacity="1" fill-rule="nonzero"/></g><g clip-path="url(#0d3cdd15fb)"><path stroke-linecap="butt" transform="matrix(0.100599, 0, 0, 0.0981356, -504.949426, 277.931876)" fill="none" stroke-linejoin="round" d="M 6585.771968 154.698306 L 6637.454759 133.044585 L 6637.454759 166.400868 L 6664.907601 137.184267 L 6699.893472 166.400868 L 6649.958033 238.805495 L 6754.139046 318.892416 L 6756.585339 359.65236 L 6650.773464 302.214275 L 6653.336247 352.129285 L 6604.91518 353.044791 L 6595.75129 176.352026 L 6580.801722 179.73542 Z M 6585.771968 154.698306 " stroke="#0061ff" stroke-width="2.08" stroke-opacity="1" stroke-miterlimit="2"/></g><g clip-path="url(#669be523a5)"><path fill="#ffb500" d="M 157.570312 292.253906 L 162.769531 290.125 L 162.769531 293.402344 L 165.53125 290.535156 L 169.050781 293.402344 L 164.027344 300.507812 L 174.507812 308.367188 L 174.753906 312.367188 L 164.109375 306.726562 L 164.367188 311.628906 L 159.496094 311.71875 L 158.574219 294.378906 L 157.070312 294.707031 Z M 157.570312 292.253906 " fill-opacity="1" fill-rule="nonzero"/></g><g clip-path="url(#590190d8c0)"><path stroke-linecap="butt" transform="matrix(0.100599, 0, 0, 0.0981356, -504.949426, 277.072014)" fill="none" stroke-linejoin="round" d="M 6585.771968 154.703272 L 6637.454759 133.009747 L 6637.454759 166.405834 L 6664.907601 137.189233 L 6699.893472 166.405834 L 6649.958033 238.810461 L 6754.139046 318.897382 L 6756.585339 359.657326 L 6650.773464 302.179437 L 6653.336247 352.134251 L 6604.91518 353.049757 L 6595.75129 176.356992 L 6580.801722 179.700581 Z M 6585.771968 154.703272 " stroke="#0061ff" stroke-width="2.08" stroke-opacity="1" stroke-miterlimit="2"/></g><g clip-path="url(#4a3220ac49)"><path stroke-linecap="butt" transform="matrix(0.0998514, 0, 0, 0.098762, -99.672983, 279.781856)" fill-opacity="1" fill="#0061ff" fill-rule="nonzero" stroke-linejoin="round" d="M 2867.239217 289.436652 L 2973.960255 294.420225 L 2973.138722 338.560448 L 2824.715108 331.12464 L 2816.499779 177.741321 L 2802.220755 180.27266 L 2804.802715 131.979459 L 2928.071774 113.548147 L 2930.614614 157.807026 L 2860.627833 169.395813 L 2862.270899 201.156206 L 2931.436147 189.448763 L 2933.978987 226.074074 L 2863.992206 239.403155 Z M 2867.239217 289.436652 " stroke="#0061ff" stroke-width="2.08" stroke-opacity="1" stroke-miterlimit="2"/></g><g clip-path="url(#759572bd5c)"><path stroke-linecap="butt" transform="matrix(0.0998514, 0, 0, 0.098762, -99.672983, 278.916486)" fill-opacity="1" fill="#ffb500" fill-rule="nonzero" stroke-linejoin="round" d="M 2867.239217 289.418253 L 2973.960255 294.401826 L 2973.138722 338.581601 L 2824.715108 331.145793 L 2816.499779 177.722921 L 2802.220755 180.293812 L 2804.802715 131.961059 L 2928.071774 113.5693 L 2930.614614 157.788627 L 2860.627833 169.416965 L 2862.270899 201.137807 L 2931.436147 189.430364 L 2933.978987 226.055674 L 2863.992206 239.384756 Z M 2867.239217 289.418253 " stroke="#0061ff" stroke-width="2.08" stroke-opacity="1" stroke-miterlimit="2"/></g><g clip-path="url(#6d2f464504)"><path stroke-linecap="butt" transform="matrix(0.119504, 0, 0, 0.118314, -38.20281, 280.781379)" fill-opacity="1" fill="#0061ff" fill-rule="nonzero" stroke-linejoin="round" d="M 2111.325893 130.709125 C 2105.671016 128.761183 2101.192876 127.770703 2097.891474 127.770703 C 2093.282585 127.770703 2088.837132 129.289438 2084.555116 132.359923 L 2089.654311 224.903681 C 2101.094814 219.984301 2108.743608 215.064922 2112.568005 210.211575 C 2116.425089 205.358228 2118.745877 201.363296 2119.563055 198.160747 C 2120.216798 196.675028 2120.935916 192.97724 2121.622346 187.067382 C 2122.341463 181.190539 2122.701022 174.587346 2122.701022 167.356849 C 2122.701022 157.84825 2121.851156 149.726322 2120.118737 142.991065 C 2118.386318 136.222791 2115.444474 132.161827 2111.325893 130.709125 Z M 2151.269593 112.418278 C 2154.472934 118.79036 2157.120593 125.393554 2159.277945 132.194843 C 2161.40261 139.029148 2162.971593 145.797422 2163.952208 152.598711 C 2164.932822 159.366985 2165.42313 166.069226 2165.42313 172.639404 C 2165.42313 184.426104 2163.854146 195.750581 2160.683493 206.612834 C 2157.545526 217.475088 2153.002012 227.181782 2147.118325 235.765934 C 2141.20195 244.31707 2134.076151 251.316455 2125.70824 256.665042 C 2117.340329 262.013628 2108.057178 265.315225 2097.891474 266.536816 L 2055.46355 274.064457 L 2041.211952 143.222176 C 2040.754332 143.222176 2039.087287 145.038055 2036.243505 148.636795 C 2033.367035 152.235536 2031.732678 154.018398 2031.242371 154.018398 C 2029.771449 152.994903 2028.463963 150.122514 2027.319912 145.368214 C 2026.208549 140.613915 2024.606879 133.218338 2022.547588 123.181484 C 2020.488298 113.14463 2018.952001 107.069692 2017.906012 104.890638 C 2033.595845 99.806179 2048.337751 95.679183 2062.164416 92.50965 C 2076.023769 89.373133 2088.902507 87.788367 2100.833317 87.788367 C 2126.460044 87.788367 2143.293928 96.009343 2151.269593 112.418278 Z M 2151.269593 112.418278 " stroke="#0061ff" stroke-width="2.08" stroke-opacity="1" stroke-miterlimit="2"/></g><g clip-path="url(#6944edbbf3)"><path stroke-linecap="butt" transform="matrix(0.119504, 0, 0, 0.118314, -38.20281, 279.744709)" fill-opacity="1" fill="#ffb500" fill-rule="nonzero" stroke-linejoin="round" d="M 2111.325893 130.721922 C 2105.671016 128.740964 2101.192876 127.783501 2097.891474 127.783501 C 2093.282585 127.783501 2088.837132 129.302235 2084.555116 132.339704 L 2089.654311 224.916478 C 2101.094814 219.964083 2108.743608 215.077719 2112.568005 210.224372 C 2116.425089 205.371025 2118.745877 201.343077 2119.563055 198.173544 C 2120.216798 196.687825 2120.935916 192.990037 2121.622346 187.080179 C 2122.341463 181.17032 2122.701022 174.600143 2122.701022 167.33663 C 2122.701022 157.861047 2121.851156 149.739119 2120.118737 142.970846 C 2118.386318 136.235588 2115.444474 132.141608 2111.325893 130.721922 Z M 2151.269593 112.39806 C 2154.472934 118.803157 2157.120593 125.373335 2159.277945 132.20764 C 2161.40261 139.00893 2162.971593 145.810219 2163.952208 152.578492 C 2164.932822 159.379782 2165.42313 166.049007 2165.42313 172.619185 C 2165.42313 184.438901 2163.854146 195.763378 2160.683493 206.625632 C 2157.545526 217.454869 2153.002012 227.161564 2147.118325 235.745715 C 2141.20195 244.329867 2134.076151 251.296236 2125.70824 256.644823 C 2117.340329 262.026425 2108.057178 265.295006 2097.891474 266.516597 L 2055.46355 274.044238 L 2041.211952 143.234974 C 2040.754332 143.234974 2039.087287 145.017836 2036.243505 148.616576 C 2033.367035 152.215317 2031.732678 154.031195 2031.242371 154.031195 C 2029.771449 153.0077 2028.463963 150.102295 2027.319912 145.381011 C 2026.208549 140.626712 2024.606879 133.231135 2022.547588 123.194281 C 2020.488298 113.157427 2018.952001 107.049473 2017.906012 104.870419 C 2033.595845 99.78596 2048.337751 95.69198 2062.164416 92.522447 C 2076.023769 89.38593 2088.902507 87.801164 2100.833317 87.801164 C 2126.460044 87.801164 2143.293928 95.989124 2151.269593 112.39806 Z M 2151.269593 112.39806 " stroke="#0061ff" stroke-width="2.08" stroke-opacity="1" stroke-miterlimit="2"/></g><g clip-path="url(#bfedd798e5)"><path stroke-linecap="butt" transform="matrix(0.0998514, 0, 0, 0.098762, -53.559777, 279.781856)" fill-opacity="1" fill="#0061ff" fill-rule="nonzero" stroke-linejoin="round" d="M 2867.239973 289.436652 L 2973.961011 294.420225 L 2973.139478 338.560448 L 2824.715864 331.12464 L 2816.500535 177.741321 L 2802.221511 180.27266 L 2804.803471 131.979459 L 2928.07253 113.548147 L 2930.61537 157.807026 L 2860.628589 169.395813 L 2862.271655 201.156206 L 2931.436902 189.448763 L 2933.979742 226.074074 L 2863.992962 239.403155 Z M 2867.239973 289.436652 " stroke="#0061ff" stroke-width="2.08" stroke-opacity="1" stroke-miterlimit="2"/></g><g clip-path="url(#1bc17591b5)"><path stroke-linecap="butt" transform="matrix(0.0998514, 0, 0, 0.098762, -53.559777, 278.916486)" fill-opacity="1" fill="#ffb500" fill-rule="nonzero" stroke-linejoin="round" d="M 2867.239973 289.418253 L 2973.961011 294.401826 L 2973.139478 338.581601 L 2824.715864 331.145793 L 2816.500535 177.722921 L 2802.221511 180.293812 L 2804.803471 131.961059 L 2928.07253 113.5693 L 2930.61537 157.788627 L 2860.628589 169.416965 L 2862.271655 201.137807 L 2931.436902 189.430364 L 2933.979742 226.055674 L 2863.992962 239.384756 Z M 2867.239973 289.418253 " stroke="#0061ff" stroke-width="2.08" stroke-opacity="1" stroke-miterlimit="2"/></g><g clip-path="url(#3ead21c340)"><path fill="#0061ff" d="M 258.3125 306.210938 L 254.347656 313.0625 L 249.03125 313.226562 L 256.371094 301.3125 L 250.207031 291.011719 L 255.957031 291.847656 L 258.820312 296.753906 L 261.59375 291.847656 L 267.25 291.597656 L 261.269531 301.675781 L 266.582031 312.296875 L 260.753906 310.945312 Z M 258.3125 306.210938 " fill-opacity="1" fill-rule="nonzero"/></g><g clip-path="url(#aa54dae179)"><path stroke-linecap="butt" transform="matrix(0.101201, 0, 0, 0.101388, -1264.113896, 285.014189)" fill="none" stroke-linejoin="round" d="M 15043.594048 209.065071 L 15004.416128 276.642531 L 14951.882976 278.260691 L 15024.410377 160.751425 L 14963.501255 59.15407 L 15020.318889 67.398982 L 15048.611909 115.789683 L 15076.017154 67.398982 L 15131.908414 64.933214 L 15072.813442 164.334495 L 15125.307996 269.091115 L 15067.718383 255.760556 Z M 15043.594048 209.065071 " stroke="#0061ff" stroke-width="2.08" stroke-opacity="1" stroke-miterlimit="2"/></g><g clip-path="url(#dc2aff96af)"><path fill="#ffb500" d="M 258.3125 305.324219 L 254.347656 312.171875 L 249.03125 312.335938 L 256.371094 300.425781 L 250.207031 290.121094 L 255.957031 290.957031 L 258.820312 295.867188 L 261.59375 290.957031 L 267.25 290.710938 L 261.269531 300.785156 L 266.582031 311.410156 L 260.753906 310.058594 Z M 258.3125 305.324219 " fill-opacity="1" fill-rule="nonzero"/></g><g clip-path="url(#a602e64dd6)"><path stroke-linecap="butt" transform="matrix(0.101201, 0, 0, 0.101388, -1264.113896, 284.125851)" fill="none" stroke-linejoin="round" d="M 15043.594048 209.081045 L 15004.416128 276.619977 L 14951.882976 278.238137 L 15024.410377 160.767399 L 14963.501255 59.131516 L 15020.318889 67.376429 L 15048.611909 115.805657 L 15076.017154 67.376429 L 15131.908414 64.949188 L 15072.813442 164.311941 L 15125.307996 269.10709 L 15067.718383 255.77653 Z M 15043.594048 209.081045 " stroke="#0061ff" stroke-width="2.08" stroke-opacity="1" stroke-miterlimit="2"/></g></svg>